<svg width="37.49" height="32.14" xmlns="http://www.w3.org/2000/svg">

 <title>icon 14002-70</title>
 <g>
  <title>background</title>
  <rect fill="none" id="canvas_background" height="402" width="582" y="-1" x="-1"/>
 </g>
 <g>
  <title>Layer 1</title>
  <path fill="#eae6e4" d="m27.88,0a9,9 0 0 0 -9.13,7.67a9,9 0 0 0 -9.12,-7.67c-5.27,-0.1 -9.63,3.87 -9.63,11.12c0,9.3 10.73,13.59 18.07,20.54c0.26,0.24 0.2,0.24 0.2,0.24a0.6,0.6 0 0 0 0.48,0.24l0,0a0.61,0.61 0 0 0 0.48,-0.24s-0.06,0 0.19,-0.24c7.34,-6.95 18.07,-11.24 18.07,-20.54c0,-7.25 -4.35,-11.22 -9.61,-11.12z" class="cls-1" id="Path_89-70"/>
 </g>
</svg>