<svg width="31.29" height="41.7" xmlns="http://www.w3.org/2000/svg">

 <title>icon 14017-73</title>
 <g>
  <title>background</title>
  <rect fill="none" id="canvas_background" height="402" width="582" y="-1" x="-1"/>
 </g>
 <g>
  <title>Layer 1</title>
  <path fill="#eae6e4" d="m31.12,20.61c-3.57,-2.67 -13.27,-15.1 -15.12,-20.16c-0.1,-0.29 -0.19,-0.45 -0.36,-0.45s-0.25,0.16 -0.36,0.45c-1.84,5.06 -11.53,17.49 -15.11,20.16a0.46,0.46 0 0 0 -0.17,0.24a0.46,0.46 0 0 0 0.17,0.24c3.58,2.67 13.27,15.1 15.11,20.16c0.11,0.3 0.2,0.45 0.36,0.45s0.26,-0.15 0.37,-0.45c1.84,-5 11.54,-17.49 15.11,-20.16a0.46,0.46 0 0 0 0.17,-0.24a0.46,0.46 0 0 0 -0.17,-0.24z" class="cls-1" id="Path_88-73"/>
 </g>
</svg>