<svg width="16.87" height="19.25" xmlns="http://www.w3.org/2000/svg">

 <title>icon 13999-81</title>
 <g>
  <title>background</title>
  <rect fill="none" id="canvas_background" height="402" width="582" y="-1" x="-1"/>
 </g>
 <g>
  <title>Layer 1</title>
  <path fill="#eae6e4" d="m8.75,0.24c-0.11,-0.13 -0.09,-0.12 -0.09,-0.12a0.29,0.29 0 0 0 -0.4,-0.07l-0.07,0.07s0,0 -0.09,0.12c-2.85,3.33 -8.1,5.21 -8.1,10a6.61,6.61 0 0 0 0,0.76a4.43,4.43 0 0 0 4.33,4.41a3.94,3.94 0 0 0 3.13,-2c-0.36,2.33 -0.82,4.92 -1,5.24c-0.22,0.55 0,0.64 0.18,0.64l3.44,0c0.13,0 0.4,-0.09 0.18,-0.64c-0.13,-0.32 -0.6,-2.91 -1,-5.24a4,4 0 0 0 3.13,2a4.44,4.44 0 0 0 4.45,-4.41c0,-0.26 0,-0.52 0,-0.76c0.01,-4.79 -5.24,-6.67 -8.09,-10z" class="cls-1" id="Path_85-81"/>
 </g>
</svg>