<svg width="16.93" height="19.22" xmlns="http://www.w3.org/2000/svg">

 <title>Path 90-115</title>
 <g>
  <title>background</title>
  <rect fill="none" id="canvas_background" height="402" width="582" y="-1" x="-1"/>
 </g>
 <g>
  <title>Layer 1</title>
  <path fill="#eae6e4" d="m12.62,6.85a4,4 0 0 0 -0.69,0.06a4.3,4.3 0 1 0 -6.85,0a4.33,4.33 0 0 0 -1.49,8.54a5.25,5.25 0 0 0 0.79,0.06a4.29,4.29 0 0 0 3.31,-1.51a20.2,20.2 0 0 1 -1,5.27l3.61,0a19.79,19.79 0 0 1 -1,-5.27a4.31,4.31 0 1 0 6.59,-5.57a4.37,4.37 0 0 0 -3.29,-1.53l0.02,-0.05z" class="cls-1" id="Path_90-115"/>
 </g>
</svg>